<svg width="84" height="40" viewBox="0 0 84 40" fill="none" xmlns="http://www.w3.org/2000/svg">
<path fill-rule="evenodd" clip-rule="evenodd" d="M51.7885 10.9805V32.9413H54.9418V10.9805H51.7885ZM33.0505 17.59C33.0864 17.3278 33.1461 17.068 33.2228 16.8131C33.3855 16.2985 33.6726 15.8353 34.0528 15.4628C34.261 15.2594 34.4931 15.083 34.742 14.9384C35.0171 14.7815 35.3042 14.6516 35.6033 14.5536C36.3522 14.3159 37.1321 14.2007 37.9144 14.2154L46.4748 14.2203V10.9927H37.6488C36.4166 10.9633 35.1894 11.152 34.0218 11.5564C33.5504 11.7353 33.0984 11.9607 32.6725 12.2328C31.9068 12.718 31.2705 13.3846 30.8158 14.1737C30.5886 14.5708 30.4043 14.9898 30.2704 15.4285C29.9761 16.4137 29.8326 17.4405 29.8444 18.4698V32.9413H32.9954V23.9669H46.3431V20.9426H32.9883V18.4233C32.9883 18.1439 33.0097 17.867 33.0505 17.59Z" fill="white"/>
<path fill-rule="evenodd" clip-rule="evenodd" d="M82.5421 17.0957C82.1789 15.8281 81.5351 14.661 80.6549 13.6852H80.6476C78.9725 11.8832 76.5365 10.9834 73.3399 10.9834H70.2653C68.8218 10.9515 67.3856 11.182 66.0227 11.6576C64.8547 12.0818 63.8063 12.7756 62.9577 13.6852C61.2728 15.4873 60.4316 18.2627 60.4316 22.009C60.4316 25.7555 61.2728 28.5038 62.9577 30.2619C63.8086 31.1616 64.8596 31.848 66.0227 32.2623C67.3856 32.7381 68.8218 32.9661 70.2653 32.9391H73.3399C74.7835 32.9661 76.2196 32.7381 77.5826 32.2623C78.7456 31.848 79.7967 31.1616 80.6476 30.2619C81.5301 29.2982 82.1764 28.141 82.5349 26.8832C82.9883 25.2968 83.2029 23.6543 83.1736 22.0042C83.2054 20.3467 82.9933 18.6918 82.5421 17.0957ZM79.56 25.4243C79.3503 26.3144 78.9432 27.1431 78.3654 27.8491C77.2998 29.0874 75.6295 29.7052 73.357 29.7077H70.2824C69.2729 29.7297 68.2684 29.5778 67.31 29.2589C66.5029 28.9868 65.7837 28.5038 65.2229 27.8663C64.6547 27.1627 64.2549 26.3363 64.0525 25.4562C63.7795 24.3283 63.6478 23.1687 63.6698 22.009C63.6698 19.3023 64.1963 17.3286 65.2497 16.0855C65.8055 15.4383 66.5225 14.9504 67.3271 14.6684C68.2781 14.3423 69.2606 14.1854 70.2653 14.2075H73.3399C74.3422 14.1854 75.3419 14.3423 76.2903 14.6684C77.0974 14.9479 77.8143 15.4383 78.3679 16.088C78.9383 16.8015 79.3406 17.6302 79.5455 18.5202C79.8185 19.6504 79.9502 20.8101 79.9282 21.9747C79.9527 23.1344 79.8283 24.2966 79.56 25.4243Z" fill="white"/>
<path fill-rule="evenodd" clip-rule="evenodd" d="M9.45083 26.0205V39.1561C9.45083 39.8543 9.01163 40.1877 8.46979 39.8922L1.02488 35.8179C0.423363 35.413 0.0557713 34.7386 0.0390625 34.0143V21.1765C0.148863 21.2646 0.263436 21.3408 0.385171 21.4076L9.45083 26.0205Z" fill="#765CD6"/>
<path fill-rule="evenodd" clip-rule="evenodd" d="M0.0574029 9.41187V10.1962C0.0521977 9.90996 0.0521977 9.64974 0.0574029 9.41187Z" fill="#765CD6"/>
<path fill-rule="evenodd" clip-rule="evenodd" d="M17.2948 0.711956V10.2452C17.2828 10.8487 16.9702 11.4082 16.47 11.7307L11.8864 14.1176H11.884L1.4134 8.66693C1.39897 8.65717 1.38454 8.64982 1.37011 8.64249C1.33163 8.62294 1.29316 8.61073 1.25468 8.59851C1.22823 8.59362 1.20177 8.58629 1.17773 8.58385C1.15368 8.57896 1.12963 8.57898 1.10558 8.57898C1.03344 8.58142 0.963697 8.59851 0.898768 8.62783C0.877124 8.64005 0.855481 8.64982 0.836243 8.66447C0.836243 8.66447 0.836243 8.66693 0.831433 8.66693L0.824219 8.67426C1.12723 8.11477 1.7164 7.79226 2.59416 7.31341L16.47 0.0840575C16.9221 -0.150487 17.2948 0.120707 17.2948 0.711956Z" fill="#765CD6"/>
<path fill-rule="evenodd" clip-rule="evenodd" d="M16.5097 17.9921V27.5193C16.5097 28.1106 16.14 28.3864 15.6917 28.152L0.761602 20.3079C0.422987 20.0905 0.172601 19.7632 0.0390625 19.387C0.0509855 19.4065 0.0605241 19.4261 0.0748317 19.4432C0.0843703 19.4554 0.0939087 19.4676 0.105832 19.4798C0.108217 19.4847 0.110601 19.4871 0.11537 19.492C0.124909 19.5018 0.134448 19.514 0.146371 19.5238C0.158294 19.5384 0.172601 19.5482 0.186908 19.5604C0.208371 19.5751 0.227448 19.5897 0.251294 19.5995C0.391987 19.6752 0.570833 19.6704 0.761602 19.5702L11.1442 14.1177H11.1466L15.6917 16.5019C16.1901 16.8268 16.4977 17.3863 16.5097 17.9921Z" fill="#A08AEE"/>
<path fill-rule="evenodd" clip-rule="evenodd" d="M11.8038 14.121L0.905146 19.5273C0.704896 19.6266 0.51716 19.6314 0.369475 19.5564C0.344443 19.5467 0.324419 19.5321 0.301892 19.5176C0.286871 19.5055 0.271853 19.4958 0.259338 19.4813C0.246822 19.4716 0.23681 19.4595 0.226797 19.4498C0.221791 19.4449 0.219288 19.4425 0.216785 19.4376C0.204269 19.4255 0.194256 19.4134 0.184244 19.4013C0.169225 19.3844 0.159213 19.365 0.146697 19.3456C0.0791126 19.2294 0.0390625 19.0792 0.0390625 18.9048V9.33472C0.0390625 9.0489 0.136684 8.83575 0.291878 8.7219C0.294383 8.71949 0.296885 8.71707 0.299387 8.71707C0.299387 8.71707 0.301892 8.71222 0.304394 8.71222C0.324419 8.69769 0.346948 8.68799 0.369475 8.67587C0.43706 8.6468 0.50965 8.62988 0.584745 8.62744C0.609776 8.62744 0.634808 8.62744 0.65984 8.63227C0.684869 8.63471 0.712405 8.64197 0.739939 8.6468C0.779988 8.65892 0.820038 8.67104 0.860089 8.6904C0.875107 8.69767 0.890126 8.70495 0.905146 8.71464L11.8038 14.121Z" fill="#8B73E2"/>
</svg>
