<svg width="84" height="40" viewBox="0 0 84 40" fill="none" xmlns="http://www.w3.org/2000/svg">
<path fill-rule="evenodd" clip-rule="evenodd" d="M51.8233 10.9805V32.9413H54.9787V10.9805H51.8233ZM33.0722 17.59C33.1082 17.3278 33.1679 17.068 33.2447 16.8131C33.4075 16.2985 33.6948 15.8353 34.0753 15.4628C34.2836 15.2594 34.5158 15.083 34.7649 14.9384C35.0402 14.7815 35.3275 14.6516 35.6268 14.5536C36.3762 14.3159 37.1567 14.2007 37.9396 14.2154L46.5059 14.2203V10.9927H37.6737C36.4407 10.9633 35.2126 11.152 34.0443 11.5564C33.5725 11.7353 33.1202 11.9607 32.694 12.2328C31.9278 12.718 31.291 13.3846 30.836 14.1737C30.6087 14.5708 30.4242 14.9898 30.2902 15.4285C29.9958 16.4137 29.8521 17.4405 29.864 18.4698V32.9413H33.0172V23.9669H46.3741V20.9426H33.01V18.4233C33.01 18.1439 33.0314 17.867 33.0722 17.59Z" fill="#2B2B2E"/>
<path fill-rule="evenodd" clip-rule="evenodd" d="M82.5985 17.0957C82.235 15.8281 81.5908 14.661 80.7099 13.6852H80.7027C79.0264 11.8832 76.5887 10.9834 73.3899 10.9834H70.3132C68.8686 10.9515 67.4315 11.182 66.0676 11.6576C64.8987 12.0818 63.8497 12.7756 63.0004 13.6852C61.3144 15.4873 60.4727 18.2627 60.4727 22.009C60.4727 25.7555 61.3144 28.5038 63.0004 30.2619C63.8519 31.1616 64.9037 31.848 66.0676 32.2623C67.4315 32.7381 68.8686 32.9661 70.3132 32.9391H73.3899C74.8345 32.9661 76.2716 32.7381 77.6355 32.2623C78.7994 31.848 79.8511 31.1616 80.7027 30.2619C81.5858 29.2982 82.2325 28.141 82.5912 26.8832C83.0449 25.2968 83.2597 23.6543 83.2304 22.0042C83.2622 20.3467 83.0499 18.6918 82.5985 17.0957ZM79.6143 25.4243C79.4045 26.3144 78.9971 27.1431 78.4188 27.8491C77.3525 29.0874 75.681 29.7052 73.407 29.7077H70.3302C69.32 29.7297 68.3148 29.5778 67.3558 29.2589C66.5481 28.9868 65.8285 28.5038 65.2672 27.8663C64.6987 27.1627 64.2986 26.3363 64.0961 25.4562C63.8228 24.3283 63.691 23.1687 63.713 22.009C63.713 19.3023 64.24 17.3286 65.294 16.0855C65.8503 15.4383 66.5677 14.9504 67.3729 14.6684C68.3246 14.3423 69.3078 14.1854 70.3132 14.2075H73.3899C74.3928 14.1854 75.3932 14.3423 76.3423 14.6684C77.1499 14.9479 77.8674 15.4383 78.4213 16.088C78.9921 16.8015 79.3947 17.6302 79.5997 18.5202C79.873 19.6504 80.0048 20.8101 79.9828 21.9747C80.0073 23.1344 79.8827 24.2966 79.6143 25.4243Z" fill="#2B2B2E"/>
<path fill-rule="evenodd" clip-rule="evenodd" d="M9.45736 26.0202V39.1559C9.45736 39.854 9.01786 40.1874 8.47565 39.892L1.02556 35.8176C0.42363 35.4127 0.0557829 34.7384 0.0390625 34.014V21.1763C0.148939 21.2644 0.263591 21.3405 0.385411 21.4074L9.45736 26.0202Z" fill="#765CD6"/>
<path fill-rule="evenodd" clip-rule="evenodd" d="M0.0574428 9.41162V10.1959C0.0522339 9.90971 0.0522339 9.6495 0.0574428 9.41162Z" fill="#765CD6"/>
<path fill-rule="evenodd" clip-rule="evenodd" d="M17.3062 0.711956V10.2452C17.2942 10.8487 16.9814 11.4082 16.4808 11.7307L11.8941 14.1176H11.8916L1.41381 8.66693C1.39937 8.65717 1.38493 8.64982 1.37049 8.64249C1.33199 8.62294 1.29348 8.61073 1.25498 8.59851C1.22851 8.59362 1.20204 8.58629 1.17797 8.58385C1.15391 8.57896 1.12984 8.57898 1.10578 8.57898C1.03358 8.58142 0.963794 8.59851 0.89882 8.62783C0.87716 8.64005 0.855503 8.64982 0.836251 8.66447C0.836251 8.66447 0.836251 8.66693 0.831438 8.66693L0.824219 8.67426C1.12744 8.11477 1.71702 7.79226 2.59539 7.31341L16.4808 0.0840575C16.9332 -0.150487 17.3062 0.120707 17.3062 0.711956Z" fill="#765CD6"/>
<path fill-rule="evenodd" clip-rule="evenodd" d="M16.5211 17.9921V27.5193C16.5211 28.1106 16.1512 28.3864 15.7026 28.152L0.762104 20.3079C0.423253 20.0905 0.172694 19.7632 0.0390625 19.387C0.0509938 19.4065 0.060539 19.4261 0.0748566 19.4432C0.0844018 19.4554 0.0939468 19.4676 0.105878 19.4798C0.108265 19.4847 0.110651 19.4871 0.115423 19.492C0.124968 19.5018 0.134514 19.514 0.146445 19.5238C0.158377 19.5384 0.172694 19.5482 0.187011 19.5604C0.208488 19.5751 0.227578 19.5897 0.251441 19.5995C0.392232 19.6752 0.571202 19.6704 0.762104 19.5702L11.152 14.1177H11.1544L15.7026 16.5019C16.2013 16.8268 16.5091 17.3863 16.5211 17.9921Z" fill="#A08AEE"/>
<path fill-rule="evenodd" clip-rule="evenodd" d="M11.8119 14.121L0.905747 19.5273C0.705358 19.6266 0.517491 19.6314 0.369704 19.5564C0.344655 19.5467 0.324617 19.5321 0.302074 19.5176C0.287043 19.5055 0.272015 19.4958 0.25949 19.4813C0.246966 19.4716 0.236947 19.4595 0.226928 19.4498C0.221918 19.4449 0.219413 19.4425 0.216908 19.4376C0.204384 19.4255 0.194364 19.4134 0.184345 19.4013C0.169316 19.3844 0.159296 19.365 0.146772 19.3456C0.0791404 19.2294 0.0390625 19.0792 0.0390625 18.9048V9.33472C0.0390625 9.0489 0.136752 8.83575 0.292054 8.7219C0.29456 8.71949 0.297064 8.71707 0.299568 8.71707C0.299568 8.71707 0.302074 8.71222 0.304578 8.71222C0.324617 8.69769 0.347162 8.68799 0.369704 8.67587C0.437337 8.6468 0.509977 8.62988 0.585124 8.62744C0.610173 8.62744 0.635221 8.62744 0.66027 8.63227C0.685317 8.63471 0.712872 8.64197 0.740425 8.6468C0.780502 8.65892 0.82058 8.67104 0.860659 8.6904C0.875688 8.69767 0.890716 8.70495 0.905747 8.71464L11.8119 14.121Z" fill="#8B73E2"/>
</svg>
