<svg width="24" height="24" viewBox="0 0 24 24" fill="none" xmlns="http://www.w3.org/2000/svg">
  <circle cx="12" cy="12" r="10" fill="white"/>
  <path fill-rule="evenodd" clip-rule="evenodd" d="M12 24C18.6274 24 24 18.6274 24 12C24 5.37258 18.6274 0 12 0C5.37258 0 0 5.37258 0 12C0 18.6274 5.37258 24 12 24ZM17.6108 6L13.1428 11.0817L18 18H14.4264L11.1544 13.3403L7.0584 18H6L10.6852 12.6716L6 6H9.5736L12.6712 10.4115L16.5524 6H17.6108ZM9.0664 6.78095H7.4404L14.9252 17.2574H16.5516L9.0664 6.78095Z" fill="#765CD6"/>
</svg>
