<svg width="34" height="34" viewBox="0 0 34 34" fill="none" xmlns="http://www.w3.org/2000/svg">
<circle cx="17" cy="17" r="17" fill="#2B2B2E"/>
<path fill-rule="evenodd" clip-rule="evenodd" d="M18.5451 20.7555V28.844C18.5451 29.2738 18.2566 29.4792 17.9007 29.2972L13.0108 26.7884C12.6157 26.539 12.3743 26.1238 12.3633 25.6778V17.7727C12.4354 17.827 12.5107 17.8739 12.5906 17.915L18.5451 20.7555Z" fill="#765CD6"/>
<path fill-rule="evenodd" clip-rule="evenodd" d="M22.4087 5.06513V10.8049C22.4014 11.1683 22.2107 11.5051 21.9057 11.6993L19.1101 13.1365H19.1086L12.7226 9.85469C12.7138 9.84881 12.705 9.84438 12.6962 9.83997C12.6728 9.8282 12.6493 9.82085 12.6258 9.8135C12.6097 9.81055 12.5936 9.80614 12.5789 9.80467C12.5642 9.80172 12.5496 9.80174 12.5349 9.80174C12.4909 9.8032 12.4483 9.81349 12.4087 9.83115C12.3955 9.8385 12.3823 9.84438 12.3706 9.85321C12.3706 9.85321 12.3706 9.85469 12.3677 9.85469L12.3633 9.8591C12.5481 9.52224 12.9074 9.32806 13.4428 9.03976L21.9057 4.68708C22.1814 4.54587 22.4087 4.70915 22.4087 5.06513Z" fill="#765CD6"/>
<path fill-rule="evenodd" clip-rule="evenodd" d="M22.4087 15.4692V21.2054C22.4087 21.5614 22.1833 21.7275 21.9099 21.5863L12.804 16.8635C12.5974 16.7326 12.4447 16.5355 12.3633 16.309C12.3706 16.3208 12.3764 16.3326 12.3851 16.3429C12.3909 16.3502 12.3967 16.3576 12.404 16.3649C12.4055 16.3679 12.4069 16.3693 12.4098 16.3723C12.4156 16.3782 12.4215 16.3855 12.4287 16.3914C12.436 16.4002 12.4447 16.4061 12.4535 16.4135C12.4665 16.4223 12.4782 16.4311 12.4927 16.437C12.5785 16.4826 12.6876 16.4797 12.804 16.4193L19.1364 13.1365H19.1378L21.9099 14.572C22.2139 14.7676 22.4015 15.1044 22.4087 15.4692Z" fill="#A08AEE"/>
<path fill-rule="evenodd" clip-rule="evenodd" d="M19.3178 13.5248L12.8753 16.9489C12.7569 17.0118 12.6459 17.0149 12.5586 16.9674C12.5438 16.9612 12.532 16.952 12.5186 16.9428C12.5098 16.9351 12.5009 16.929 12.4935 16.9198C12.4861 16.9137 12.4802 16.906 12.4743 16.8998C12.4713 16.8968 12.4698 16.8952 12.4683 16.8922C12.4609 16.8845 12.455 16.8768 12.4491 16.8692C12.4402 16.8584 12.4343 16.8462 12.4269 16.8339C12.387 16.7602 12.3633 16.6651 12.3633 16.5547V10.4934C12.3633 10.3123 12.421 10.1773 12.5127 10.1052C12.5142 10.1037 12.5157 10.1022 12.5172 10.1022C12.5172 10.1022 12.5186 10.0991 12.5201 10.0991C12.532 10.0899 12.5453 10.0838 12.5586 10.0761C12.5986 10.0577 12.6415 10.047 12.6859 10.0454C12.7007 10.0454 12.7154 10.0454 12.7302 10.0485C12.745 10.05 12.7613 10.0546 12.7776 10.0577C12.8013 10.0653 12.8249 10.073 12.8486 10.0853C12.8575 10.0899 12.8664 10.0945 12.8753 10.1006L19.3178 13.5248Z" fill="#8B73E2"/>
</svg>
