<svg width="24" height="24" viewBox="0 0 24 24" fill="none" xmlns="http://www.w3.org/2000/svg">
<g clip-path="url(#clip0_4_670)">
<path fill-rule="evenodd" clip-rule="evenodd" d="M12 24C5.37258 24 0 18.6274 0 12C0 5.37258 5.37258 0 12 0C18.6274 0 24 5.37258 24 12C24 18.6274 18.6274 24 12 24ZM11.9396 8.16421L9.22076 10.8829L7.63876 9.30092L11.9396 5L16.2418 9.30236L14.6598 10.8844L11.9396 8.16421ZM8.10356 11.9998L6.52159 10.4178L4.93955 11.9998L6.52151 13.5818L8.10356 11.9998ZM11.9396 15.8358L9.22075 13.1171L7.63644 14.697L7.63865 14.6992L11.9396 19L16.2418 14.6978L16.2426 14.6969L14.6597 13.1158L11.9396 15.8358ZM17.3577 13.5825L18.9398 12.0005L17.3578 10.4185L15.7757 12.0006L17.3577 13.5825ZM13.5449 11.9992H13.5442L13.5457 11.9999L13.5449 12.0008L11.9396 13.6062L10.3357 12.0023L10.3335 11.9999L10.3357 11.9977L10.6169 11.7165L10.7531 11.5802H10.7532L11.9396 10.3938L13.5449 11.9992Z" fill="#686868"/>
</g>
<defs>
<clipPath id="clip0_4_670">
<rect width="24" height="24" fill="white"/>
</clipPath>
</defs>
</svg>
