<svg width="24" height="24" viewBox="0 0 24 24" fill="none" xmlns="http://www.w3.org/2000/svg">
<g clip-path="url(#clip0_4_611)">
<path d="M9.07586 11.2367V11.2288C8.15728 11.2288 7.41602 11.9881 7.41602 12.9214C7.41602 13.8547 8.15728 14.6142 9.07586 14.6142C9.99443 14.6142 10.7357 13.8548 10.7357 12.9294C10.7357 11.9959 9.98637 11.2367 9.07586 11.2367Z" fill="white"/>
<path d="M12 0C5.37259 0 0 5.37259 0 12C0 18.6274 5.37259 24 12 24C18.6274 24 24 18.6274 24 12C24 5.37259 18.6274 0 12 0ZM16.4397 18.3317C16.4397 18.3317 15.8352 17.6592 15.4003 17.0662C17.4952 16.4729 18.2851 15.2865 18.2851 15.2865C16.1069 16.6332 14.0726 17.1514 12 17.0841C9.92741 17.1513 7.89312 16.6332 5.71517 15.2865C5.71517 15.2865 6.50477 16.4729 8.59997 17.0662C8.1649 17.6594 7.56058 18.3317 7.56058 18.3317C3.96667 18.2526 2.5728 16.0537 2.49216 16.1486C2.49216 11.2526 4.86912 7.26605 4.86912 7.26605C6.99629 5.73965 8.97845 5.67619 9.35712 5.66827L9.5989 5.89766C6.88349 6.65698 5.57011 7.84344 5.57011 7.84344C7.90066 6.71779 10.0972 6.32184 12 6.29813C13.9028 6.32213 16.0992 6.71779 18.4299 7.84344C18.4299 7.84344 17.1165 6.65698 14.4012 5.89766L14.6429 5.66827C15.0216 5.67619 17.0037 5.73946 19.1309 7.26605C19.1309 7.26605 21.5078 11.2525 21.5078 16.1486C21.4272 16.0537 20.0333 18.2526 16.4397 18.3317Z" fill="white"/>
<path d="M14.9255 11.2288V11.2367C14.015 11.2367 13.2656 11.996 13.2656 12.9294C13.2656 13.8548 14.007 14.6142 14.9255 14.6142C15.844 14.6142 16.5854 13.8548 16.5854 12.9214C16.5854 11.9881 15.8441 11.2288 14.9255 11.2288Z" fill="white"/>
</g>
<defs>
<clipPath id="clip0_4_611">
<rect width="24" height="24" fill="white"/>
</clipPath>
</defs>
</svg>
