<svg width="24" height="24" viewBox="0 0 24 24" fill="none" xmlns="http://www.w3.org/2000/svg">
<path fill-rule="evenodd" clip-rule="evenodd" d="M12 24C18.6274 24 24 18.6274 24 12C24 5.37258 18.6274 0 12 0C5.37258 0 0 5.37258 0 12C0 18.6274 5.37258 24 12 24ZM17.503 16.6153V17.0769H17.5739L17.5744 17.0771C17.7704 17.0771 17.9294 17.2493 17.9294 17.4617V17.9233H13.953V17.4617C13.953 17.2493 14.112 17.0771 14.308 17.0771H14.379V16.6155C14.379 16.4295 14.501 16.2742 14.663 16.2386V12.4617H14.6518C14.5263 10.9521 13.3552 9.76927 11.9293 9.76927C10.5034 9.76927 9.33235 10.9523 9.20677 12.4617H9.19559V16.2309H9.26653C9.46256 16.2309 9.62152 16.4032 9.62152 16.6155V17.0771H9.69246C9.88848 17.0771 10.0474 17.2493 10.0474 17.4617V17.9233H6.07109V17.4617C6.07109 17.2493 6.23006 17.0771 6.42609 17.0771H6.49702V16.6155C6.49702 16.4032 6.65599 16.2309 6.85202 16.2309V9.3847H6.46156L6 7.69235H8.05919V6H15.7988V7.69218H18L17.5384 9.38452H17.148V16.2308C17.344 16.2308 17.503 16.403 17.503 16.6153Z" fill="#686868"/>
</svg>
