<svg width="24" height="24" viewBox="0 0 24 24" fill="none" xmlns="http://www.w3.org/2000/svg">
<path fill-rule="evenodd" clip-rule="evenodd" d="M0 12C0 18.6274 5.37258 24 12 24C18.6274 24 24 18.6274 24 12C24 5.37258 18.6274 0 12 0C5.37258 0 0 5.37258 0 12ZM15.006 12.8242C15.0267 12.826 15.0452 12.8377 15.0556 12.8557C15.066 12.8737 15.067 12.8957 15.0582 12.9145L12.0839 18.0583C12.0726 18.0764 12.053 18.0876 12.0317 18.0882H10.2134C10.1919 18.0882 10.172 18.0767 10.1613 18.058C10.1507 18.0394 10.1509 18.0164 10.1619 17.9979L13.1362 12.8541C13.1468 12.8357 13.1664 12.8243 13.1877 12.8242H15.006ZM13.238 11.3501C13.2167 11.3495 13.1971 11.3382 13.1858 11.3202L10.1619 6.09048C10.1509 6.07198 10.1507 6.049 10.1613 6.03031C10.172 6.01162 10.1919 6.00013 10.2134 6.00013H12.0317C12.053 6.00074 12.0726 6.01196 12.0839 6.03004L15.1078 11.2597C15.1188 11.2782 15.119 11.3012 15.1083 11.3199C15.0977 11.3386 15.0778 11.3501 15.0563 11.3501H13.238ZM13.5978 6.02856C13.5861 6.04753 13.586 6.07138 13.5974 6.09048L17.0463 12.0442L13.6006 17.9979C13.5896 18.0165 13.5894 18.0396 13.6002 18.0583C13.611 18.0771 13.6311 18.0885 13.6528 18.0882H15.4736C15.4949 18.0882 15.5146 18.0768 15.5252 18.0583L18.9919 12.0741C19.0027 12.0556 19.0027 12.0327 18.9919 12.0143L15.5252 6.03004C15.5146 6.01152 15.4949 6 15.4736 6.00013H13.6528C13.6306 5.99864 13.6094 6.00959 13.5978 6.02856ZM12.1176 12.0773C12.129 12.0576 12.129 12.0333 12.1176 12.0136L8.59614 6.03004C8.58428 6.01272 8.56464 6.00237 8.54365 6.00237C8.52266 6.00237 8.50302 6.01272 8.49116 6.03004L5.00852 12.0111C4.99716 12.0308 4.99716 12.055 5.00852 12.0747L8.52997 18.0583C8.54183 18.0756 8.56147 18.086 8.58246 18.086C8.60345 18.086 8.62309 18.0756 8.63495 18.0583L12.1176 12.0773Z" fill="#686868"/>
</svg>
