<svg width="24" height="24" viewBox="0 0 24 24" fill="none" xmlns="http://www.w3.org/2000/svg">
<path d="M15.6746 11.9999C15.6746 14.0249 14.0246 15.6749 11.9996 15.6749C9.97461 15.6749 8.32461 14.0249 8.32461 11.9999C8.32461 11.6999 8.39961 11.3249 8.47461 11.0249H7.34961V16.2749C7.34961 16.4249 7.49961 16.5749 7.64961 16.5749H16.2746C16.4246 16.5749 16.5746 16.4249 16.5746 16.2749V11.0249H15.4496C15.5996 11.3249 15.6746 11.6999 15.6746 11.9999Z" fill="#686868"/>
<path d="M14.7004 9.67505H16.3504C16.5004 9.67505 16.6504 9.52505 16.6504 9.37505V7.72505C16.6504 7.57505 16.5004 7.42505 16.3504 7.42505H14.7004C14.5504 7.42505 14.4004 7.57505 14.4004 7.72505V9.37505C14.3254 9.52505 14.4754 9.67505 14.7004 9.67505Z" fill="#686868"/>
<path d="M12.0008 14.325C13.2848 14.325 14.3258 13.2841 14.3258 12C14.3258 10.716 13.2848 9.67505 12.0008 9.67505C10.7167 9.67505 9.67578 10.716 9.67578 12C9.67578 13.2841 10.7167 14.325 12.0008 14.325Z" fill="#686868"/>
<path d="M0 12C0 18.6274 5.37258 24 12 24C18.6274 24 24 18.6274 24 12C24 5.37258 18.6274 0 12 0C5.37258 0 0 5.37258 0 12ZM18 16.575C18 17.325 17.325 18 16.575 18H7.425C6.675 18 6 17.4 6 16.575V7.425C6 6.6 6.675 6 7.425 6H16.575C17.325 6 18 6.6 18 7.425V16.575Z" fill="#686868"/>
</svg>
