<svg width="24" height="24" viewBox="0 0 24 24" fill="none" xmlns="http://www.w3.org/2000/svg">
<g clip-path="url(#clip0_4_661)">
<path fill-rule="evenodd" clip-rule="evenodd" d="M12 24C5.37258 24 0 18.6274 0 12C0 5.37258 5.37258 0 12 0C18.6274 0 24 5.37258 24 12C24 18.6274 18.6274 24 12 24ZM16.1704 6.61488C16.1704 6.61488 17.9995 7.43328 17.9995 10.2245C17.9995 10.2245 18.0225 12.2834 17.7411 13.7134C17.5631 14.6208 16.1589 15.6144 14.5479 15.8068C14.5072 15.8117 14.459 15.8178 14.4037 15.825C13.6736 15.9188 11.7013 16.1723 9.4164 15.6144C9.4164 15.7551 9.42502 15.8872 9.44225 16.0135C9.63177 17.4379 10.8551 17.524 12.0152 17.5642C13.1868 17.6015 14.2292 17.2742 14.2292 17.2742L14.278 18.3338C14.278 18.3338 13.4596 18.7731 12.0008 18.8535C11.1968 18.8995 10.1975 18.8334 9.03448 18.5262C5.9806 17.7178 5.99161 13.9683 6.00106 10.7502C6.00158 10.5732 6.0021 10.3977 6.0021 10.2245C6.0021 7.43328 7.83129 6.61488 7.83129 6.61488C9.6088 5.79935 14.3756 5.79074 16.1704 6.61488ZM14.5048 13.8197H15.843C15.843 13.2071 15.8476 12.679 15.8517 12.2205C15.8708 10.0568 15.8762 9.44127 15.3146 8.79441C14.5766 7.97026 13.026 7.90422 12.3339 8.96957L12.0008 9.52953L11.6677 8.96957C10.9785 7.90996 9.43076 7.96452 8.68702 8.79441C8.12647 9.43809 8.13174 10.0562 8.15031 12.2349C8.15419 12.6902 8.15865 13.2136 8.15865 13.8197H9.49968V10.5403C9.49968 9.11315 11.3375 9.05859 11.3375 10.7385V12.5332H12.667V10.7385C12.667 9.05859 14.5048 9.11315 14.5048 10.5403V13.8197Z" fill="#686868"/>
</g>
<defs>
<clipPath id="clip0_4_661">
<rect width="24" height="24" fill="white"/>
</clipPath>
</defs>
</svg>
