<svg width="24" height="24" viewBox="0 0 24 24" fill="none" xmlns="http://www.w3.org/2000/svg">
<g clip-path="url(#clip0_4_684)">
<path fill-rule="evenodd" clip-rule="evenodd" d="M12 24C5.37258 24 0 18.6274 0 12C0 5.37258 5.37258 0 12 0C18.6274 0 24 5.37258 24 12C24 18.6274 18.6274 24 12 24ZM17.5562 7.36705C17.7547 7.61542 17.8575 7.89954 17.8894 8.21402C17.939 8.69469 17.8114 9.1289 17.5633 9.53452C17.1504 10.2278 16.3068 10.6978 16.2288 10.7389C16.0711 10.8229 16.0126 10.9479 16.0232 11.1302C16.0321 11.3125 15.9878 12.222 15.4402 12.6222C15.1584 12.8277 14.0241 13.0922 13.5013 13.1815C13.2964 13.2171 13.212 13.2746 13.1177 13.339C13.0889 13.3587 13.059 13.379 13.0245 13.3995C12.826 13.5246 12.1154 14.5145 11.9966 14.7343C12.0003 14.7335 12.1215 14.6958 12.307 14.6382C12.9242 14.4465 14.253 14.0337 14.3307 14.0214C14.593 13.9803 14.7933 14.0571 14.9227 14.2501C15.0285 14.4086 15.1318 14.5672 15.2358 14.7269C15.2537 14.7543 15.2716 14.7818 15.2895 14.8094C15.3191 14.8546 15.347 14.8999 15.375 14.9452C15.389 14.9678 15.4029 14.9904 15.4171 15.0131L15.4614 15.0828C15.464 15.0871 15.4667 15.0916 15.4696 15.0961C15.484 15.1197 15.5004 15.1463 15.5093 15.1793C15.5164 15.2079 15.5359 15.3008 15.4827 15.3579C15.4331 15.4098 15.348 15.4098 15.3019 15.3973C15.2576 15.3847 15.192 15.3597 15.1389 15.3151L15.0662 15.2525C15.0095 15.2025 14.8996 15.1775 14.8127 15.181C14.7135 15.1846 14.5806 15.1525 14.5186 15.1114C14.3963 15.0309 14.3626 14.8308 14.3626 14.8272C14.3466 14.7611 14.2988 14.7433 14.2545 14.7433C14.1842 14.7417 14.1277 14.7595 14.0716 14.7772C14.0641 14.7796 14.0565 14.782 14.0489 14.7844C13.7583 14.8737 13.4676 14.9648 13.177 15.056L12.7605 15.1864C12.5549 15.2507 12.3493 15.3151 12.1455 15.383C12.0906 15.4008 12.0356 15.4294 11.9789 15.4598C11.9665 15.4661 11.9545 15.4723 11.9426 15.4786C11.9306 15.4848 11.9187 15.4911 11.9063 15.4973L11.9062 15.4973C11.8814 15.5098 11.8566 15.5223 11.8318 15.5366L11.8241 15.5409C11.7716 15.57 11.7172 15.6001 11.6564 15.6188C11.449 15.6814 11.2665 15.5902 11.1814 15.3812C11.1265 15.2454 11.1761 14.9773 11.2062 14.8987C11.3688 14.4775 11.84 13.7371 11.9712 13.5309C11.9931 13.4966 12.0055 13.4771 12.0055 13.4764C11.9949 13.4728 11.3285 13.7426 11.2186 13.8266C10.9173 14.0571 10.2102 14.6039 10.1996 14.6575C10.1553 14.9005 10.0029 15.0846 9.77423 15.1739C9.60941 15.2382 9.50839 15.3705 9.41092 15.4991C9.41092 15.4991 7.63867 17.9596 7.51993 18.0919C7.51613 18.0961 7.50926 18.1035 7.4999 18.1136C7.41759 18.2025 7.14243 18.4998 7.06446 18.6458C7.05129 18.6701 7.01773 18.7418 6.98945 18.8021C6.97207 18.8392 6.95668 18.872 6.94926 18.887C6.94849 18.8886 6.94768 18.8902 6.94681 18.892C6.92966 18.9274 6.89136 19.0064 6.76318 18.9996C6.63457 18.9945 6.62391 18.8199 6.61858 18.7326C6.61833 18.7285 6.61809 18.7245 6.61785 18.7208C6.6019 18.5189 6.64621 18.3188 6.75254 18.1097C6.75374 18.1068 6.75694 18.1011 6.76149 18.0928C6.79082 18.0399 6.87597 17.8863 6.83761 17.7595C6.79862 17.6308 6.76141 17.4325 6.81989 17.3307C6.90266 17.1905 7.04187 17.1697 7.22538 17.1423C7.25011 17.1386 7.27564 17.1348 7.30194 17.1305C7.45613 17.1055 7.56778 17.0269 7.67589 16.8696C7.81143 16.6689 8.17158 16.1505 8.48074 15.7055C8.68902 15.4057 8.87415 15.1392 8.95191 15.0256C9.0033 14.9488 9.04406 14.8523 9.06179 14.7593C9.11673 14.4734 9.29041 14.2751 9.58992 14.1518C9.65549 14.1268 10.8464 13.1226 10.8464 12.9939C10.8464 12.9028 10.7171 12.851 10.6161 12.8241C10.6019 12.8206 9.85221 12.624 9.51194 12.4686C9.32585 12.3828 9.18407 12.3095 9.01925 12.188C8.8 12.0257 8.37216 12.0954 8.28294 12.1099C8.27985 12.1104 8.27716 12.1108 8.27491 12.1112C7.9559 12.1576 7.71842 12.3024 7.44904 12.4864C7.40119 12.5204 7.15662 12.6097 7.03256 12.5382C6.99399 12.5162 6.94803 12.4913 6.89722 12.4638C6.63048 12.3193 6.23015 12.1025 6.06491 11.8503C5.97453 11.7127 5.98693 11.4858 6.05073 11.2356C6.25631 10.6567 6.55937 10.3976 7.12117 10.2403C7.45262 10.1245 8.06446 10.0839 8.48447 10.0561C8.56976 10.0505 8.64714 10.0453 8.71265 10.0402C8.71636 10.039 8.73619 10.0375 8.76921 10.0351C8.97324 10.0201 9.68094 9.96831 10.1996 9.7007C10.2464 9.67659 10.3038 9.64449 10.3715 9.60666C10.886 9.31917 11.9923 8.70093 13.5084 8.7483C13.8851 8.75996 14.4443 8.96707 14.9572 9.1571C15.3877 9.31656 15.7857 9.46398 16.0161 9.47377C16.5301 9.49521 16.7888 9.43803 17.0866 9.12712C17.1717 9.03777 17.5279 8.26048 17.1912 7.837C17.0653 7.67975 16.9342 7.53859 16.7853 7.40993C16.7411 7.37201 16.6965 7.33443 16.6518 7.29684C16.4924 7.16261 16.3328 7.02821 16.1916 6.87745C15.7893 6.4486 15.6652 5.8625 15.8566 5.40506C15.9772 5.08521 16.2341 4.94584 16.6028 5.0191C16.7839 5.05537 16.9312 5.18009 17.067 5.29516C17.1253 5.34448 17.1814 5.39202 17.2372 5.43008C17.3418 5.49977 17.5155 5.54086 17.6289 5.56767C17.7724 5.60162 17.8806 5.7124 17.8735 5.78745C17.8664 5.8625 17.6785 5.92683 17.496 5.91254C17.2815 5.89824 16.9111 5.89645 16.6896 5.9715C16.5425 6.02511 16.4769 6.19129 16.5195 6.35389C16.5549 6.48791 16.8367 6.72556 16.943 6.81312C16.9908 6.85282 17.0391 6.89152 17.0874 6.93017C17.2542 7.06374 17.4202 7.19658 17.5562 7.36705Z" fill="#686868"/>
</g>
<defs>
<clipPath id="clip0_4_684">
<rect width="24" height="24" fill="white"/>
</clipPath>
</defs>
</svg>
