<svg width="24" height="24" viewBox="0 0 24 24" fill="none" xmlns="http://www.w3.org/2000/svg">
<g clip-path="url(#clip0_4_694)">
<path d="M14.512 16.0945C13.9744 16.6321 12.8225 16.824 12.0016 16.824C11.1784 16.824 10.0289 16.6321 9.49126 16.0945C9.364 15.9672 9.16002 15.9672 9.03294 16.0945C8.90569 16.2217 8.90569 16.4257 9.03294 16.5528C9.88493 17.4048 11.5217 17.472 12.0016 17.472C12.4816 17.472 14.116 17.4048 14.9705 16.5528C15.0952 16.4255 15.0952 16.2215 14.9705 16.0945C14.8432 15.9672 14.6393 15.9672 14.512 16.0945Z" fill="#686868"/>
<path d="M10.5009 13.2504C10.5009 12.5616 9.93927 12 9.25043 12C8.56177 12 8 12.5616 8 13.2504C8 13.9391 8.56177 14.5009 9.25043 14.5009C9.93927 14.5009 10.5009 13.9393 10.5009 13.2504Z" fill="#686868"/>
<path d="M12 0C5.3736 0 0 5.3736 0 12C0 18.6264 5.3736 24 12 24C18.6264 24 24 18.6264 24 12C24 5.3736 18.6264 0 12 0ZM18.9624 13.6007C18.9888 13.7736 19.0032 13.9488 19.0032 14.1264C19.0032 16.8192 15.8688 19.0009 12.0024 19.0009C8.13593 19.0009 5.00153 16.8192 5.00153 14.1264C5.00153 13.9464 5.01599 13.7688 5.04236 13.5959C4.4328 13.3224 4.008 12.7104 4.008 12C4.008 11.0352 4.79041 10.2504 5.75757 10.2504C6.22797 10.2504 6.65277 10.4352 6.96716 10.7377C8.18152 9.86169 9.86169 9.30231 11.7312 9.25433C11.7312 9.23035 12.6048 5.06873 12.6048 5.06873C12.6216 4.98724 12.6696 4.91748 12.7392 4.87207C12.8088 4.82648 12.8928 4.81201 12.9745 4.82886L15.8833 5.44794C16.0873 5.03522 16.5071 4.74957 16.9991 4.74957C17.6904 4.74957 18.2496 5.30878 18.2496 6C18.2496 6.69122 17.6904 7.25043 16.9991 7.25043C16.3295 7.25043 15.7872 6.72235 15.756 6.06006L13.1519 5.50562L12.3552 9.2569C14.1912 9.32153 15.8401 9.87836 17.0352 10.7424C17.3496 10.4377 17.7768 10.2504 18.2496 10.2504C19.2169 10.2504 19.9991 11.0328 19.9991 12C19.9991 12.7152 19.5696 13.3271 18.9624 13.6007Z" fill="#686868"/>
<path d="M14.7504 12C14.0616 12 13.5 12.5616 13.5 13.2504C13.5 13.9391 14.0616 14.5009 14.7504 14.5009C15.4391 14.5009 16.0009 13.9391 16.0009 13.2504C16.0009 12.5616 15.4393 12 14.7504 12Z" fill="#686868"/>
</g>
<defs>
<clipPath id="clip0_4_694">
<rect width="24" height="24" fill="white"/>
</clipPath>
</defs>
</svg>
