<svg width="24" height="24" viewBox="0 0 24 24" fill="none" xmlns="http://www.w3.org/2000/svg">
<g clip-path="url(#clip0_4_721)">
<path d="M15.3152 8.68412L15.2915 8.66044C13.6703 7.04789 11.1186 6.85002 9.2682 8.19337C7.41781 9.53672 6.81564 12.0243 7.84679 14.0652L8.05205 14.4694L7.66836 16.3294V16.3531L9.511 15.9157L9.931 16.1241C11.7234 17.0138 13.8837 16.6606 15.2994 15.2462C17.1035 13.4334 17.1106 10.5056 15.3152 8.68412ZM15.1289 13.8946C14.9031 14.2499 14.5447 14.6841 14.0978 14.7931C13.3084 14.9841 12.1068 14.7931 10.602 13.402L10.5831 13.3846C9.27415 12.1625 8.92679 11.1441 9.00415 10.3373C9.04994 9.87939 9.43205 9.4657 9.75415 9.19412C9.85775 9.10588 9.99715 9.07218 10.1296 9.10335C10.2621 9.13452 10.3718 9.22684 10.4252 9.35202L10.9099 10.4573C10.9744 10.601 10.9544 10.7686 10.8578 10.8931L10.6115 11.2089C10.5068 11.3429 10.4937 11.5271 10.5784 11.6746C10.8125 12.0189 11.0924 12.3297 11.4105 12.5983C11.752 12.9288 12.1404 13.2071 12.5631 13.4241C12.7206 13.4881 12.9012 13.45 13.0194 13.3278L13.302 13.042C13.4097 12.9187 13.5781 12.8672 13.7363 12.9094L14.8889 13.241C15.0188 13.279 15.1233 13.3758 15.1711 13.5024C15.2189 13.6291 15.2044 13.7708 15.132 13.8852L15.1289 13.8946Z" fill="#686868"/>
<path d="M12 0C5.37258 0 0 5.37258 0 12C0 18.6274 5.37258 24 12 24C18.6274 24 24 18.6274 24 12C24 5.37258 18.6274 0 12 0ZM17.9479 12.1405C17.882 14.1657 16.7908 16.0183 15.0515 17.0579C13.3123 18.0974 11.1638 18.1811 9.34895 17.28L6.34895 17.9937C6.25614 18.015 6.15974 17.9774 6.10579 17.8989C6.06936 17.8471 6.0562 17.7825 6.06947 17.7205L6.70105 14.6542C5.56989 12.4378 5.93675 9.75165 7.62081 7.91972C9.30487 6.08779 11.9507 5.49668 14.2543 6.43775C16.5579 7.37881 18.033 9.65345 17.9526 12.1405H17.9479Z" fill="#686868"/>
</g>
<defs>
<clipPath id="clip0_4_721">
<rect width="24" height="24" fill="white"/>
</clipPath>
</defs>
</svg>
